<?xml version="1.0" standalone="no"?>
<!DOCTYPE svg PUBLIC "-//W3C//DTD SVG 20010904//EN"
 "http://www.w3.org/TR/2001/REC-SVG-20010904/DTD/svg10.dtd">
<svg version="1.0" xmlns="http://www.w3.org/2000/svg"
 width="740.000000pt" height="740.000000pt" viewBox="0 0 740.000000 740.000000"
 preserveAspectRatio="xMidYMid meet">
<metadata>
Created by potrace 1.14, written by Peter Selinger 2001-2017
</metadata>
<g transform="translate(0.000000,740.000000) scale(0.100000,-0.100000)"
fill="#000000" stroke="none">
<path d="M2509 7368 c-119 -126 -269 -334 -329 -459 -56 -118 -73 -206 -67
-349 12 -251 94 -473 218 -584 l49 -44 -34 -134 c-136 -519 -190 -1128 -167
-1883 6 -187 11 -372 11 -410 l0 -70 -80 3 c-87 4 -189 -10 -251 -35 l-39 -15
0 -239 0 -239 -70 -46 c-84 -54 -186 -98 -289 -126 -89 -23 -335 -37 -367 -20
-11 6 -25 27 -33 49 -19 52 -29 63 -61 63 -33 0 -55 -23 -73 -76 -39 -109 -28
-215 28 -271 53 -53 103 -42 114 23 6 35 10 39 51 51 84 25 220 34 320 23 124
-14 308 -77 368 -126 2 -1 3 -184 3 -406 -1 -367 0 -406 16 -438 41 -80 212
-110 378 -64 19 5 20 0 20 -146 0 -82 -3 -150 -7 -150 -14 0 -19 -111 -8 -186
36 -239 151 -448 348 -636 327 -310 792 -448 1408 -417 549 27 815 132 1038
407 134 167 212 356 231 567 6 71 -10 451 -21 493 -6 21 -4 22 63 22 82 0 175
22 221 53 18 12 42 42 54 66 19 40 22 67 29 315 4 149 8 292 8 317 1 46 1 46
59 77 110 58 409 137 563 148 l86 7 6 -49 c9 -86 76 -119 136 -68 71 59 66
216 -9 307 -44 52 -81 51 -115 -3 -15 -23 -36 -43 -53 -47 -15 -5 -117 -8
-227 -8 -216 0 -271 9 -383 62 l-53 25 7 277 7 277 -32 23 c-62 44 -138 64
-262 69 l-116 4 -7 927 c-7 958 -16 1250 -42 1399 -18 109 -51 230 -80 302
-21 53 -22 56 -4 90 110 221 123 580 30 860 -54 165 -207 420 -251 420 -25 0
-24 -14 5 -93 87 -229 71 -489 -43 -715 -21 -42 -47 -87 -58 -100 -18 -23 -18
-23 -43 -4 -52 41 -202 120 -303 160 -233 93 -480 136 -772 136 -214 0 -319
-13 -485 -60 -106 -31 -284 -117 -369 -180 l-64 -47 -34 19 c-109 58 -179 229
-190 459 -6 140 12 270 53 372 14 35 23 71 20 78 -8 22 -32 18 -57 -7z m1373
-693 c488 -57 862 -249 1052 -540 87 -133 131 -252 165 -440 36 -202 39 -285
46 -1340 3 -456 8 -847 11 -868 7 -44 -12 -97 -33 -97 -11 0 -13 -5 -7 -17 4
-10 8 -40 9 -66 1 -27 7 -52 13 -56 9 -6 8 -37 -4 -132 -16 -130 -63 -291
-106 -365 -51 -89 -58 -93 -185 -126 -65 -17 -138 -34 -164 -38 -25 -5 -63
-13 -85 -18 -206 -54 -728 -77 -1289 -58 -210 8 -475 25 -486 31 -4 3 -22 7
-40 10 -108 14 -244 47 -309 74 -41 17 -83 31 -93 31 -10 0 -16 4 -12 10 3 5
-9 37 -26 72 -54 107 -71 226 -85 593 -2 72 -7 157 -9 190 -4 53 -18 407 -18
460 0 11 0 36 0 55 -4 625 19 990 89 1395 23 134 109 480 139 560 92 246 282
445 539 566 237 111 561 152 888 114z m-1710 -3290 c10 -4 13 -64 13 -302 -1
-194 -4 -298 -11 -300 -6 -2 -8 -18 -5 -36 4 -31 5 -31 12 -7 5 18 7 12 7 -25
0 -91 35 -701 47 -819 4 -33 3 -109 -1 -169 -8 -127 -10 -129 -120 -148 -92
-16 -186 1 -226 42 l-27 27 0 373 c0 205 4 380 8 388 3 9 4 95 0 191 -5 140
-3 180 8 198 10 16 11 27 3 42 -6 12 -10 113 -9 265 l1 246 26 11 c15 6 43 14
62 18 41 9 192 12 212 5z m3253 -95 c101 -26 140 -49 139 -81 -1 -13 -5 -163
-9 -334 -4 -170 -8 -348 -10 -395 -2 -47 -6 -240 -10 -430 -4 -190 -11 -361
-16 -381 -18 -72 -89 -109 -221 -117 -49 -2 -88 -3 -88 -1 -1 2 -9 51 -19 109
-20 109 -20 152 -6 670 3 102 8 268 10 370 3 102 6 274 6 383 l1 199 31 13
c45 20 101 18 192 -5z m-551 -762 c-51 -101 -151 -238 -173 -238 -3 0 -6 33
-6 74 0 68 -2 77 -32 114 l-33 40 123 30 c67 17 128 31 135 31 8 1 3 -17 -14
-51z m-2111 -30 l78 -11 -25 -26 c-33 -34 -66 -108 -66 -148 0 -18 -4 -33 -8
-33 -4 0 -26 19 -49 43 -43 43 -83 128 -83 174 0 24 2 25 38 19 20 -3 72 -12
115 -18z m1175 -417 c37 -5 114 -15 172 -21 302 -34 695 -143 930 -258 82 -41
74 -27 94 -157 20 -130 20 -134 0 -141 -11 -4 -30 -16 -43 -26 l-24 -18 27 0
c16 0 26 6 26 14 0 8 7 16 15 20 8 3 15 1 15 -4 0 -6 -4 -10 -10 -10 -15 0
-12 -16 6 -34 8 -9 12 -16 7 -16 -4 0 -2 -4 5 -9 16 -10 31 -211 15 -211 -5 0
-18 8 -29 18 -11 10 -32 22 -46 25 -15 4 -34 14 -42 22 -8 9 -29 21 -46 26
-16 6 -28 15 -25 19 3 5 0 12 -6 16 -8 5 -9 3 -4 -6 9 -14 -22 -7 -70 18 -16
8 -108 43 -205 77 -411 146 -949 213 -1329 165 -317 -40 -428 -60 -576 -103
-139 -40 -352 -116 -428 -152 -43 -20 -81 -35 -84 -32 -17 17 0 444 19 463 36
36 435 179 638 229 297 73 785 115 998 86z m-226 -686 c-2 -83 -5 -172 -7
-200 -8 -105 -16 -493 -18 -809 l-2 -329 -100 6 c-153 10 -141 -1 -149 135 -7
134 0 1073 10 1234 l7 107 66 4 c36 1 95 3 131 2 l65 -1 -3 -149z m286 121
c10 -10 10 -37 2 -132 -21 -238 -29 -517 -27 -915 l2 -406 -96 -6 c-135 -8
-135 -8 -142 66 -3 34 -3 107 -1 162 1 55 3 192 4 305 1 113 6 320 11 460 6
140 12 301 14 358 2 63 9 110 17 119 10 12 28 14 108 8 52 -4 101 -12 108 -19z
m212 -26 c30 -4 68 -13 84 -19 27 -11 28 -14 22 -54 -7 -42 -29 -283 -44 -472
-4 -55 -7 -270 -7 -478 l0 -377 -30 -6 c-49 -9 -182 -20 -194 -16 -14 5 -15
752 -1 1032 20 414 21 419 84 405 17 -3 56 -10 86 -15z m-1164 -82 c-3 -46 -8
-153 -11 -238 -3 -85 -7 -202 -10 -260 -5 -119 -12 -277 -21 -525 -3 -93 -8
-173 -11 -177 -6 -11 -62 14 -155 69 l-80 48 6 310 c4 171 9 333 11 360 2 28
7 135 10 240 4 104 8 191 9 193 5 4 227 60 244 61 11 1 13 -16 8 -81z m1514 1
c41 -12 80 -25 85 -29 7 -6 3 -86 -13 -247 -20 -196 -24 -302 -25 -600 l-2
-362 -95 -31 c-52 -16 -116 -33 -141 -36 l-46 -6 -6 113 c-7 154 0 591 13 769
15 211 39 432 50 457 9 22 11 22 57 8 26 -8 82 -24 123 -36z m-1824 -66 c-5
-61 -10 -199 -21 -538 -2 -60 -4 -174 -4 -253 -1 -82 -5 -142 -10 -140 -5 2
-44 34 -86 73 l-77 69 6 231 c3 126 5 304 6 395 l0 165 88 32 c48 17 91 32 95
32 5 1 6 -29 3 -66z m2083 -26 l74 -32 -2 -460 -1 -460 -43 -38 c-46 -42 -112
-89 -156 -112 l-29 -14 -5 47 c-9 80 -8 410 2 552 5 74 17 228 27 343 21 240
10 226 133 174z m-2326 -349 c-5 -353 -9 -382 -40 -356 -23 19 -113 182 -142
258 -38 97 -63 222 -59 291 l3 54 105 52 c58 29 112 52 122 53 15 0 16 -28 11
-352z m2567 239 c36 -19 80 -43 98 -53 l34 -19 -5 -115 c-9 -211 -90 -415
-235 -590 -10 -12 -11 55 -8 345 3 198 5 388 5 422 1 72 -3 72 111 10z"/>
<path d="M2742 5610 c-79 -10 -112 -23 -112 -45 0 -7 -10 -17 -22 -21 -27 -8
-72 -50 -61 -57 4 -2 19 2 33 9 15 8 19 14 10 14 -9 1 -5 6 10 15 27 14 44 10
20 -6 -10 -6 -12 -11 -4 -16 7 -6 11 -118 12 -353 3 -570 36 -973 92 -1142 43
-125 120 -233 205 -283 24 -13 72 -32 108 -40 57 -13 70 -13 123 0 152 39 225
154 245 385 23 268 29 600 15 845 -11 187 -35 534 -42 592 -6 50 -8 53 -43 63
-131 38 -436 59 -589 40z m299 -562 c1 -7 3 -28 5 -47 2 -19 -2 -47 -10 -62
l-14 -29 34 0 c24 0 34 -5 34 -15 0 -11 -12 -15 -49 -15 -44 0 -49 -3 -55 -25
-9 -36 -36 -32 -36 5 0 23 -4 30 -20 30 -11 0 -20 7 -20 15 0 8 8 15 18 15 28
0 82 73 82 109 0 21 5 31 15 31 8 0 16 -6 16 -12z"/>
<path d="M4062 5583 c-31 -58 -44 -520 -22 -758 31 -340 135 -832 209 -990 46
-99 130 -164 212 -165 50 0 133 45 174 94 59 73 105 204 149 431 50 253 66
684 40 1075 -9 139 -11 223 -5 236 8 18 5 23 -15 33 -14 6 -51 11 -82 11 -31
0 -129 7 -217 15 -445 42 -431 41 -443 18z m426 -658 c-5 -44 -5 -45 24 -45
36 0 68 -16 68 -34 0 -11 -14 -13 -62 -9 -40 3 -85 -1 -123 -11 -41 -11 -62
-13 -69 -6 -12 12 9 30 35 30 21 0 34 17 43 52 4 18 15 30 30 34 14 3 27 12
30 20 3 8 11 14 17 14 8 0 10 -15 7 -45z"/>
<path d="M2579 3625 c-26 -59 -44 -75 -84 -75 -23 0 -39 -7 -49 -22 -14 -20
-13 -22 11 -35 40 -21 65 -54 59 -79 -3 -12 -24 -53 -46 -92 -39 -66 -48 -92
-33 -92 4 0 46 38 94 85 52 51 92 83 100 80 14 -6 23 -18 125 -157 60 -83 81
-93 50 -25 -8 18 -30 66 -49 107 -57 127 -56 133 32 199 34 25 22 51 -24 51
-50 0 -89 23 -109 65 -24 50 -52 47 -77 -10z m111 -112 c0 -6 -4 -15 -10 -18
-5 -3 -10 -15 -10 -26 0 -22 -4 -23 -31 -8 -16 8 -26 7 -44 -5 -21 -14 -23
-14 -29 2 -3 9 -9 23 -12 30 -3 6 0 12 6 12 14 0 33 18 48 47 l12 22 35 -22
c19 -12 34 -27 35 -34z"/>
<path d="M3681 3546 c-9 -10 -10 -36 -5 -85 6 -70 6 -70 -20 -77 -15 -3 -63
-3 -106 0 -82 8 -120 -2 -120 -29 0 -7 -6 -16 -12 -18 -7 -3 -4 -6 8 -6 11 -1
23 -4 27 -7 3 -3 54 -7 114 -7 l108 -2 -4 -65 c-2 -36 -7 -75 -12 -87 -13 -34
-1 -53 32 -53 22 0 32 7 46 33 20 37 22 50 10 58 -16 11 -21 100 -7 109 7 4
67 6 134 4 66 -2 126 -1 132 3 6 5 14 18 18 29 9 28 -1 30 -154 33 -69 1 -129
6 -134 11 -5 5 -5 41 1 85 5 41 7 78 4 80 -10 10 -49 4 -60 -9z"/>
<path d="M3380 3310 c-9 -6 -10 -10 -3 -10 6 0 15 5 18 10 8 12 4 12 -15 0z"/>
</g>
</svg>
